Coordinates
version=1
nRows=10
nColumns=38
inDegrees=yes

Units are S.I. units (second, meters, Newtons, ...)
Angles are in degrees.

endheader
time	pelvis_tilt	pelvis_list	pelvis_rotation	pelvis_tx	pelvis_ty	pelvis_tz	hip_flexion_r	hip_adduction_r	hip_rotation_r	knee_angle_r	ankle_angle_r	subtalar_angle_r	mtp_angle_r	hip_flexion_l	hip_adduction_l	hip_rotation_l	knee_angle_l	ankle_angle_l	subtalar_angle_l	mtp_angle_l	lumbar_extension	lumbar_bending	lumbar_rotation	arm_flex_r	arm_add_r	arm_rot_r	elbow_flex_r	pro_sup_r	wrist_flex_r	wrist_dev_r	arm_flex_l	arm_add_l	arm_rot_l	elbow_flex_l	pro_sup_l	wrist_flex_l	wrist_dev_l
      1.10000000	      1.40441239	     -0.69979504	      1.35947498	     -0.98303494	      0.92722989	     -0.26299734	     -5.26391810	      6.35660686	     -6.77896401	    -12.78674066	     11.16747026	      4.44613510	      0.29219371	     25.38610156	      1.39400094	      2.61981631	    -32.54867028	      0.10617534	    -10.19529145	      9.04546168	     -9.08610817	      3.55253207	      3.38591610	      5.72637457	    -23.27949329	     16.31053691	     34.43733394	     86.51662706	      0.00000000	      0.00000000	     -2.67710989	    -12.98698915	     24.12133164	     11.79102537	     86.51662706	      0.00000000	      0.00000000
      1.11000000	      1.07917669	     -0.94569200	      1.28563218	     -0.97081504	      0.92492373	     -0.26267742	     -6.07534821	      6.67536921	     -6.47328885	    -12.21234604	     11.62397020	      4.50078708	      0.44580624	     25.98909880	      1.18389886	      2.79883663	    -29.33855306	      0.66806372	     -9.79392319	      8.98583382	     -8.76021885	      3.83036254	      3.53458062	      6.17086757	    -23.43824919	     16.20296534	     34.82828623	     86.51662706	      0.00000000	      0.00000000	     -3.30620953	    -12.99189859	     24.32747414	     11.72864532	     86.51662706	      0.00000000	      0.00000000
      1.12000000	      0.93771669	     -1.07323090	      1.21417396	     -0.95845674	      0.92276008	     -0.26245346	     -7.00627223	      6.86158643	     -6.25085521	    -11.81578519	     12.09483049	      4.56070876	      0.58026990	     26.29017322	      1.08372233	      2.90971765	    -26.08961536	      1.19429643	     -9.18955830	      8.82378612	     -8.65051816	      3.96953650	      3.68753290	      6.52837514	    -23.63251325	     16.08920043	     35.41727576	     86.51662706	      0.00000000	      0.00000000	     -3.77459737	    -12.92283866	     24.47862448	     11.37744396	     86.51662706	      0.00000000	      0.00000000
      1.13000000	      0.92469991	     -1.12209069	      1.14321321	     -0.94598177	      0.92068887	     -0.26232902	     -8.00798359	      6.95602461	     -6.08831938	    -11.56809153	     12.56543169	      4.61820258	      0.70122758	     26.37830314	      1.05721348	      2.94886018	    -22.87381522	      1.68224391	     -8.34819941	      8.58844573	     -8.68812012	      4.01756350	      3.83943681	      6.80894527	    -23.85123402	     15.95707335	     36.15045790	     86.51662706	      0.00000000	      0.00000000	     -4.11687713	    -12.79727376	     24.60680795	     10.80587641	     86.51662706	      0.00000000	      0.00000000
      1.14000000	      0.97716908	     -1.13668226	      1.07108193	     -0.93341094	      0.91865547	     -0.26229674	     -9.02427623	      7.00315845	     -5.96005235	    -11.44163018	     13.01695863	      4.66857534	      0.81722507	     26.35646506	      1.06631107	      2.91039641	    -19.79109777	      2.13182702	     -7.24594052	      8.31680914	     -8.79703112	      4.02670627	      3.98437354	      7.02330585	    -24.08169498	     15.79282696	     36.96460773	     86.51662706	      0.00000000	      0.00000000	     -4.37143630	    -12.63415800	     24.74881980	     10.09423969	     86.51662706	      0.00000000	      0.00000000
      1.15000000	      1.04076081	     -1.15401612	      0.99704032	     -0.92076231	      0.91661583	     -0.26234110	    -10.00410077	      7.03841812	     -5.84446357	    -11.42029517	     13.42956918	      4.71369458	      0.94000132	     26.31699345	      1.08189261	      2.78977362	    -16.95714750	      2.54777506	     -5.88910756	      8.04642556	     -8.91417627	      4.03970075	      4.11791386	      7.17957175	    -24.31208346	     15.58430381	     37.80066380	     86.51662706	      0.00000000	      0.00000000	     -4.57114253	    -12.44937946	     24.93763622	      9.31751712	     86.51662706	      0.00000000	      0.00000000
      1.16000000	      1.07961369	     -1.19636089	      0.92077005	     -0.90805113	      0.91454028	     -0.26245200	    -10.90889020	      7.08119096	     -5.72712518	    -11.50282374	     13.78483851	      4.76267848	      1.08533617	     26.32692145	      1.08828156	      2.58964395	    -14.49188525	      2.93884352	     -4.32567517	      7.80957632	     -8.99926883	      4.08190201	      4.23862054	      7.28118629	    -24.53240203	     15.32257028	     38.61128054	     86.51662706	      0.00000000	      0.00000000	     -4.73932447	    -12.25438581	     25.19745559	      8.53571105	     86.51662706	      0.00000000	      0.00000000
      1.17000000	      1.07953348	     -1.26919060	      0.84074978	     -0.89528330	      0.91242259	     -0.26263214	    -11.71645472	      7.13318470	     -5.60162390	    -11.70024053	     14.06752798	      4.83019926	      1.27412932	     26.42250489	      1.08348036	      2.32562802	    -12.50722928	      3.31317009	     -2.64623971	      7.62907904	     -9.03549744	      4.15903526	      4.34850761	      7.32608562	    -24.73417546	     15.00232503	     39.36340601	     86.51662706	      0.00000000	      0.00000000	     -4.88996677	    -12.05710086	     25.54170786	      7.79013097	     86.51662706	      0.00000000	      0.00000000
      1.18000000	      1.04504723	     -1.36381150	      0.75296616	     -0.88244142	      0.91030345	     -0.26288427	    -12.42177575	      7.18085042	     -5.46887450	    -12.02964479	     14.26660563	      4.93321804	      1.53330441	     26.61056918	      1.07688735	      2.02901890	    -11.09335141	      3.67052932	     -0.97456462	      7.51584369	     -9.02329872	      4.25938420	      4.45214449	      7.30718400	    -24.90959207	     14.62149660	     40.03719448	     86.51662706	      0.00000000	      0.00000000	     -5.03046726	    -11.86374702	     25.97324979	      7.10394636	     86.51662706	      0.00000000	      0.00000000
      1.19000000	      0.99216100	     -1.46205947	      0.65172049	     -0.86947616	      0.90826754	     -0.26318967	    -13.03340621	      7.20087243	     -5.33547569	    -12.50661933	     14.37530594	      5.08712638	      1.89607483	     26.87308001	      1.08547065	      1.74426461	    -10.30429439	      3.99370130	      0.55022070	      7.46825429	     -8.97067073	      4.35915662	      4.55456278	      7.21422088	    -25.05071116	     14.18043946	     40.62270921	     86.51662706	      0.00000000	      0.00000000	     -5.16513702	    -11.68017612	     26.48591815	      6.48539882	     86.51662706	      0.00000000	      0.00000000
